<svg width="72" height="56" viewBox="0 0 72 56" fill="none" xmlns="http://www.w3.org/2000/svg">
<path d="M29.0165 0.337036C21.3232 0.337036 14.3833 1.18298 9.22855 2.63662C6.65118 3.36345 4.52592 4.22843 2.90815 5.31062C1.37141 6.33862 0.148331 7.73216 0.0279716 9.48197C0.0173145 9.52616 0.00841743 9.57077 0.00130253 9.61567C-0.000276816 9.66199 0.00130253 9.7026 0.00130253 9.74938V17.3167C-0.000434175 17.3612 -0.000434175 17.4058 0.00130253 17.4504V25.1246C0.00123324 25.1335 0.00123324 25.1424 0.00130253 25.1513V32.8523V40.5532C0.00130253 42.4363 1.21285 43.9049 2.80148 45.1525C4.39011 46.4001 6.51026 47.4883 9.09521 48.4414C14.2651 50.3474 21.259 51.6769 29.0165 51.6769C34.6222 51.6769 39.5302 51.0057 43.9241 49.9122C44.1429 49.8595 44.3493 49.7642 44.5315 49.6315C44.7136 49.4989 44.8679 49.3314 44.9855 49.139C45.1031 48.9466 45.1818 48.7329 45.217 48.5099C45.2523 48.287 45.2434 48.0593 45.1908 47.8398C45.1383 47.6203 45.0432 47.4134 44.9109 47.2308C44.7786 47.0482 44.6117 46.8935 44.4198 46.7756C44.2279 46.6576 44.0146 46.5787 43.7923 46.5434C43.57 46.5081 43.3429 46.5169 43.124 46.5696C38.9918 47.5981 34.3524 48.2542 29.0165 48.2542C21.645 48.2542 14.9707 46.9662 10.2686 45.2327C7.91757 44.3659 6.07609 43.3957 4.90828 42.4785C3.74047 41.5614 3.41485 40.8035 3.41485 40.5532V38.5746C4.95176 39.6844 6.88827 40.55 9.14854 41.302C14.348 43.0316 21.3124 43.976 29.0165 43.976C34.0494 43.976 37.9488 43.8763 42.1373 43.0935C42.5797 43.0051 42.9694 42.745 43.2215 42.3699C43.4735 41.9948 43.5676 41.5351 43.4832 41.0907C43.3988 40.6464 43.1427 40.2535 42.7708 39.9976C42.3988 39.7417 41.9411 39.6435 41.4972 39.7244C37.6302 40.447 34.0028 40.5532 29.0165 40.5532C21.5917 40.5532 14.8878 39.6208 10.2153 38.0665C7.879 37.2892 6.06436 36.3341 4.93495 35.3925C3.80553 34.4509 3.41485 33.6621 3.41485 32.8523V30.7666C4.962 31.9035 6.85315 32.8374 9.14854 33.601C14.348 35.3307 21.3124 36.275 29.0165 36.275C35.4435 36.275 40.0517 35.7187 44.8041 34.5102C45.2426 34.3966 45.6181 34.1131 45.8481 33.722C46.0781 33.3309 46.1437 32.8642 46.0306 32.4246C45.9174 31.9849 45.6347 31.6083 45.2447 31.3776C44.8547 31.147 44.3892 31.0811 43.9507 31.1945C39.4599 32.3364 35.2514 32.8523 29.0165 32.8523C21.5917 32.8523 14.8878 31.9197 10.2153 30.3654C7.879 29.5882 6.06436 28.633 4.93495 27.6915C3.80553 26.7498 3.41485 25.9611 3.41485 25.1513C3.41735 25.0979 3.41735 25.0443 3.41485 24.9909V23.1726C4.95176 24.2824 6.88827 25.1481 9.14854 25.9C14.348 27.6297 21.3124 28.574 29.0165 28.574C36.7205 28.574 43.6849 27.6297 48.8844 25.9C51.1446 25.1481 53.0812 24.2824 54.6181 23.1726V26.007C54.6149 26.2337 54.6566 26.4589 54.741 26.6693C54.8253 26.8798 54.9505 27.0713 55.1093 27.2328C55.2681 27.3943 55.4574 27.5225 55.666 27.6101C55.8747 27.6976 56.0986 27.7427 56.3248 27.7427C56.551 27.7427 56.775 27.6976 56.9836 27.6101C57.1923 27.5225 57.3815 27.3943 57.5403 27.2328C57.6991 27.0713 57.8244 26.8798 57.9087 26.6693C57.993 26.4589 58.0348 26.2337 58.0316 26.007V17.4503C58.0341 17.3969 58.0341 17.3434 58.0316 17.2899V9.74933C58.0316 9.69317 58.0339 9.64427 58.0316 9.58887C58.0253 9.535 58.0164 9.48149 58.0049 9.42846C57.8627 7.70459 56.6454 6.32782 55.1248 5.31057C53.507 4.22838 51.3817 3.36345 48.8044 2.63662C43.6496 1.18298 36.7097 0.337036 29.0165 0.337036ZM29.0165 3.75971C36.4521 3.75971 43.1537 4.59532 47.871 5.92559C50.2296 6.59072 52.0926 7.41001 53.2313 8.17172C54.37 8.93343 54.6181 9.49922 54.6181 9.74938C54.6181 10.5592 54.2274 11.348 53.098 12.2896C51.9686 13.2312 50.1539 14.1864 47.8176 14.9636C43.1451 16.518 36.4412 17.4504 29.0165 17.4504C21.5917 17.4504 14.8878 16.518 10.2153 14.9636C7.879 14.1864 6.06436 13.2312 4.93495 12.2896C3.80553 11.348 3.41485 10.5592 3.41485 9.74938C3.41485 9.49922 3.66293 8.93343 4.80161 8.17172C5.94028 7.41001 7.80332 6.59072 10.1619 5.92559C14.8792 4.59532 21.5809 3.75971 29.0165 3.75971ZM3.41485 15.4716C4.95176 16.5814 6.88827 17.4472 9.14854 18.1991C14.348 19.9287 21.3124 20.873 29.0165 20.873C36.7205 20.873 43.6849 19.9287 48.8844 18.1991C51.1446 17.4472 53.0812 16.5814 54.6181 15.4716V17.3434C54.617 17.379 54.617 17.4147 54.6181 17.4504C54.6181 18.2602 54.2274 19.049 53.098 19.9906C51.9686 20.9322 50.1539 21.8874 47.8176 22.6645C43.1451 24.219 36.4412 25.1513 29.0165 25.1513C21.5917 25.1513 14.8878 24.219 10.2153 22.6645C7.879 21.8874 6.06436 20.9322 4.93495 19.9906C3.80553 19.049 3.41485 18.2602 3.41485 17.4504C3.41735 17.3969 3.41735 17.3434 3.41485 17.2899V15.4716ZM58.6983 29.4029C58.2741 29.4496 57.8827 29.654 57.6014 29.9757C57.32 30.2975 57.169 30.7132 57.1782 31.141V40.5533H47.791C47.7377 40.5508 47.6843 40.5508 47.631 40.5533C47.4064 40.5632 47.1859 40.6175 46.9823 40.7129C46.7786 40.8084 46.5957 40.9432 46.4442 41.1096C46.2926 41.2761 46.1752 41.4709 46.0989 41.6829C46.0225 41.8949 45.9886 42.12 45.9991 42.3451C46.0096 42.5703 46.0644 42.7911 46.1602 42.995C46.256 43.199 46.391 43.3819 46.5575 43.5334C46.7239 43.6849 46.9186 43.802 47.1302 43.8779C47.3419 43.9539 47.5664 43.9872 47.791 43.976H57.1782V53.3883C57.175 53.6151 57.2168 53.8402 57.3012 54.0506C57.3855 54.2611 57.5107 54.4527 57.6695 54.6142C57.8283 54.7757 58.0175 54.9039 58.2262 54.9914C58.4349 55.0789 58.6588 55.124 58.885 55.124C59.1112 55.124 59.3351 55.0789 59.5438 54.9914C59.7524 54.9039 59.9417 54.7757 60.1005 54.6142C60.2593 54.4527 60.3845 54.2611 60.4688 54.0506C60.5532 53.8402 60.595 53.6151 60.5918 53.3883V43.976H69.979C70.2052 43.9792 70.4298 43.9374 70.6398 43.8529C70.8497 43.7683 71.0408 43.6428 71.2019 43.4836C71.3631 43.3243 71.491 43.1346 71.5783 42.9253C71.6657 42.7161 71.7106 42.4915 71.7106 42.2647C71.7106 42.0378 71.6657 41.8132 71.5783 41.604C71.491 41.3947 71.3631 41.205 71.2019 41.0457C71.0408 40.8865 70.8497 40.761 70.6398 40.6764C70.4298 40.5919 70.2052 40.5501 69.979 40.5533H60.5918V31.141C60.597 30.8974 60.5503 30.6555 60.4548 30.4314C60.3593 30.2073 60.2171 30.0063 60.0379 29.8417C59.8586 29.6772 59.6464 29.5529 59.4154 29.4772C59.1844 29.4016 58.9399 29.3762 58.6983 29.4029Z" fill="#AFC5C3"/>
</svg>
