<svg width="112" height="72" viewBox="0 0 112 72" fill="none" xmlns="http://www.w3.org/2000/svg">
<path d="M30 7.58049C30 5.60304 31.603 4 33.5805 4H64.4195C66.397 4 68 5.60304 68 7.58049V38.4195C68 40.397 66.397 42 64.4195 42H33.5805C31.603 42 30 40.397 30 38.4195V7.58049Z" fill="white"/>
<path fill-rule="evenodd" clip-rule="evenodd" d="M33.5805 0H64.4195C68.6061 0 72 3.3939 72 7.58049V38.4195C72 42.6061 68.6061 46 64.4195 46H33.5805C29.3939 46 26 42.6061 26 38.4195V7.58049C26 3.3939 29.3939 0 33.5805 0ZM33.5805 4C31.603 4 30 5.60304 30 7.58049V38.4195C30 40.397 31.603 42 33.5805 42H64.4195C66.397 42 68 40.397 68 38.4195V7.58049C68 5.60304 66.397 4 64.4195 4H33.5805Z" fill="#AFC5C3"/>
<path d="M50.8409 32.4489V33.9138C50.8409 34.7475 50.1679 35.4224 49.3365 35.4224C48.5062 35.4224 47.832 34.7475 47.832 33.9138V32.4483C45.1993 32.0712 43.1428 30.662 42.2207 29.1686C42.0828 28.9473 42 28.6715 42 28.3931C42 27.5619 42.6627 26.8973 43.4639 26.8973C44.0716 26.8973 44.4036 27.229 44.6805 27.5073C45.8403 28.6714 47.3048 29.6119 49.2113 29.6119C51.7255 29.6119 52.9415 28.7818 52.9415 27.0635C52.9415 23.018 42.8562 24.8752 42.8562 18.1964C42.8562 15.7608 44.4078 13.6568 47.8314 13.2154V11.8621C47.8314 11.0284 48.505 10.3535 49.3365 10.3535C50.1667 10.3535 50.8409 11.029 50.8409 11.8621V13.2609C52.8943 13.5774 54.6031 14.4736 55.4835 15.7317C55.6492 15.9815 55.7605 16.2859 55.7605 16.6182C55.7605 17.4209 55.0965 18.0861 54.2681 18.0861C53.8812 18.0861 53.4942 17.8648 53.0794 17.4773C52.2231 16.646 50.7858 16.0088 49.2113 16.0088C46.9184 16.0088 46.0616 17.0893 46.0616 18.197C46.0616 21.8272 56.1469 20.1373 56.1469 27.0641C56.1469 30.0133 54.3347 31.9935 50.8409 32.4489Z" fill="#AFC5C3"/>
<path d="M102.63 41.7464C102.63 52.9969 93.5345 62.1172 82.3149 62.1172C71.0953 62.1172 62 52.9969 62 41.7464C62 30.4959 71.0953 21.3756 82.3149 21.3756C93.5345 21.3756 102.63 30.4959 102.63 41.7464Z" fill="white"/>
<path fill-rule="evenodd" clip-rule="evenodd" d="M106.63 41.7463C106.63 55.2121 95.7436 66.1282 82.3149 66.1282C68.8861 66.1282 58 55.2121 58 41.7463C58 28.2806 68.8861 17.3645 82.3149 17.3645C95.7436 17.3645 106.63 28.2806 106.63 41.7463ZM82.3149 62.1172C93.5345 62.1172 102.63 52.9968 102.63 41.7463C102.63 30.4958 93.5345 21.3755 82.3149 21.3755C71.0953 21.3755 62 30.4958 62 41.7463C62 52.9968 71.0953 62.1172 82.3149 62.1172Z" fill="#AFC5C3"/>
<path fill-rule="evenodd" clip-rule="evenodd" d="M111.63 41.7463C111.63 57.9811 98.505 71.142 82.3149 71.142C66.1247 71.142 53 57.9811 53 41.7463C53 25.5116 66.1247 12.3507 82.3149 12.3507C98.505 12.3507 111.63 25.5116 111.63 41.7463ZM82.3149 57.1034C90.773 57.1034 97.6297 50.2278 97.6297 41.7463C97.6297 33.2649 90.773 26.3893 82.3149 26.3893C73.8567 26.3893 67 33.2649 67 41.7463C67 50.2278 73.8567 57.1034 82.3149 57.1034ZM82.3149 66.1282C95.7436 66.1282 106.63 55.2121 106.63 41.7463C106.63 28.2806 95.7436 17.3645 82.3149 17.3645C68.8861 17.3645 58 28.2806 58 41.7463C58 55.2121 68.8861 66.1282 82.3149 66.1282ZM102.63 41.7463C102.63 52.9968 93.5345 62.1172 82.3149 62.1172C71.0953 62.1172 62 52.9968 62 41.7463C62 30.4958 71.0953 21.3755 82.3149 21.3755C93.5345 21.3755 102.63 30.4958 102.63 41.7463Z" fill="white"/>
<path d="M91.3334 37.4196C91.329 36.2374 90.934 35.09 90.2103 34.1567C89.4866 33.2235 88.4749 32.557 87.3334 32.2614V30.7346C87.3334 30.38 87.1929 30.0399 86.9429 29.7892C86.6928 29.5384 86.3537 29.3976 86 29.3976C85.6464 29.3976 85.3073 29.5384 85.0572 29.7892C84.8072 30.0399 84.6667 30.38 84.6667 30.7346V32.0716H82V30.7346C82 30.38 81.8595 30.0399 81.6095 29.7892C81.3594 29.5384 81.0203 29.3976 80.6667 29.3976C80.3131 29.3976 79.9739 29.5384 79.7239 29.7892C79.4738 30.0399 79.3333 30.38 79.3333 30.7346V32.0716H75.3333C74.9797 32.0716 74.6406 32.2125 74.3905 32.4632C74.1405 32.7139 74 33.054 74 33.4086C74 33.7632 74.1405 34.1033 74.3905 34.354C74.6406 34.6047 74.9797 34.7456 75.3333 34.7456H76.6667V48.1156H75.3333C74.9797 48.1156 74.6406 48.2565 74.3905 48.5072C74.1405 48.7579 74 49.098 74 49.4526C74 49.8072 74.1405 50.1473 74.3905 50.398C74.6406 50.6488 74.9797 50.7896 75.3333 50.7896H79.3333V52.1266C79.3333 52.4812 79.4738 52.8213 79.7239 53.072C79.9739 53.3228 80.3131 53.4636 80.6667 53.4636C81.0203 53.4636 81.3594 53.3228 81.6095 53.072C81.8595 52.8213 82 52.4812 82 52.1266V50.7896H84.6667V52.1266C84.6667 52.4812 84.8072 52.8213 85.0572 53.072C85.3073 53.3228 85.6464 53.4636 86 53.4636C86.3537 53.4636 86.6928 53.3228 86.9429 53.072C87.1929 52.8213 87.3334 52.4812 87.3334 52.1266V50.5998C88.2737 50.3626 89.1309 49.871 89.8115 49.1785C90.492 48.486 90.9697 47.6192 91.1924 46.6729C91.415 45.7267 91.374 44.7372 91.0739 43.8127C90.7739 42.8882 90.2262 42.0642 89.4907 41.4306C90.0666 40.9336 90.5293 40.3182 90.8472 39.6261C91.1651 38.9341 91.3309 38.1815 91.3334 37.4196ZM88.6667 45.4416C88.6667 46.1508 88.3858 46.8309 87.8857 47.3324C87.3856 47.8339 86.7073 48.1156 86 48.1156H79.3333V42.7676H86C86.7073 42.7676 87.3856 43.0493 87.8857 43.5508C88.3858 44.0523 88.6667 44.7324 88.6667 45.4416ZM79.3333 40.0936V34.7456H86C86.7073 34.7456 87.3856 35.0273 87.8857 35.5288C88.3858 36.0303 88.6667 36.7104 88.6667 37.4196C88.6667 38.1288 88.3858 38.8089 87.8857 39.3104C87.3856 39.8119 86.7073 40.0936 86 40.0936H79.3333Z" fill="#AFC5C3"/>
<path fill-rule="evenodd" clip-rule="evenodd" d="M7 17C7 15.8954 7.89543 15 9 15H19C20.1046 15 21 15.8954 21 17C21 18.1046 20.1046 19 19 19H9C7.89543 19 7 18.1046 7 17Z" fill="#CBD7D4"/>
<path fill-rule="evenodd" clip-rule="evenodd" d="M-1.74846e-07 28C-7.8281e-08 26.8954 0.895431 26 2 26L19 26C20.1046 26 21 26.8954 21 28C21 29.1046 20.1046 30 19 30L2 30C0.89543 30 -2.7141e-07 29.1046 -1.74846e-07 28Z" fill="#CBD7D4"/>
<path fill-rule="evenodd" clip-rule="evenodd" d="M44 55C44 53.8954 44.8954 53 46 53H56C57.1046 53 58 53.8954 58 55C58 56.1046 57.1046 57 56 57H46C44.8954 57 44 56.1046 44 55Z" fill="#CBD7D4"/>
</svg>
